<svg width="64" height="64" viewBox="0 0 64 64" fill="none" xmlns="http://www.w3.org/2000/svg">
<rect width="64" height="64" fill="white"/>
<path d="M10.9663 22.712C10.8943 22.632 10.7423 22.528 10.5103 22.4C10.2783 22.264 9.99834 22.144 9.67034 22.04C9.35034 21.928 9.01834 21.872 8.67434 21.872C7.77034 21.872 7.31834 22.192 7.31834 22.832C7.31834 23.064 7.39034 23.248 7.53434 23.384C7.67834 23.52 7.89434 23.636 8.18234 23.732C8.47034 23.828 8.83034 23.932 9.26234 24.044C9.82234 24.188 10.3063 24.356 10.7143 24.548C11.1303 24.74 11.4463 24.996 11.6623 25.316C11.8863 25.628 11.9983 26.044 11.9983 26.564C11.9983 27.172 11.8503 27.664 11.5543 28.04C11.2663 28.408 10.8823 28.676 10.4023 28.844C9.92234 29.012 9.40234 29.096 8.84234 29.096C8.20234 29.096 7.56634 29 6.93434 28.808C6.31034 28.608 5.75434 28.336 5.26634 27.992L5.99834 26.564C6.07034 26.636 6.19834 26.732 6.38234 26.852C6.56634 26.964 6.79034 27.08 7.05434 27.2C7.31834 27.312 7.60634 27.408 7.91834 27.488C8.23034 27.568 8.54634 27.608 8.86634 27.608C9.77834 27.608 10.2343 27.316 10.2343 26.732C10.2343 26.484 10.1423 26.284 9.95834 26.132C9.77434 25.98 9.51434 25.852 9.17834 25.748C8.85034 25.644 8.46634 25.528 8.02634 25.4C7.48234 25.248 7.03034 25.08 6.67034 24.896C6.31834 24.704 6.05434 24.468 5.87834 24.188C5.70234 23.9 5.61434 23.536 5.61434 23.096C5.61434 22.512 5.75034 22.024 6.02234 21.632C6.30234 21.232 6.67834 20.932 7.15034 20.732C7.62234 20.524 8.14634 20.42 8.72234 20.42C9.31434 20.42 9.86634 20.516 10.3783 20.708C10.8903 20.9 11.3303 21.12 11.6983 21.368L10.9663 22.712ZM16.1477 29.12C15.4597 29.12 14.8677 28.972 14.3717 28.676C13.8837 28.372 13.5077 27.972 13.2437 27.476C12.9797 26.98 12.8477 26.444 12.8477 25.868C12.8477 25.284 12.9797 24.744 13.2437 24.248C13.5157 23.752 13.8957 23.356 14.3837 23.06C14.8797 22.756 15.4677 22.604 16.1477 22.604C16.8277 22.604 17.4117 22.756 17.8997 23.06C18.3957 23.356 18.7757 23.752 19.0397 24.248C19.3037 24.744 19.4357 25.284 19.4357 25.868C19.4357 26.444 19.3037 26.98 19.0397 27.476C18.7757 27.972 18.3957 28.372 17.8997 28.676C17.4117 28.972 16.8277 29.12 16.1477 29.12ZM14.5037 25.868C14.5037 26.236 14.5757 26.564 14.7197 26.852C14.8637 27.132 15.0597 27.352 15.3077 27.512C15.5557 27.672 15.8357 27.752 16.1477 27.752C16.4517 27.752 16.7277 27.672 16.9757 27.512C17.2237 27.344 17.4197 27.12 17.5637 26.84C17.7157 26.552 17.7917 26.224 17.7917 25.856C17.7917 25.496 17.7157 25.176 17.5637 24.896C17.4197 24.608 17.2237 24.384 16.9757 24.224C16.7277 24.056 16.4517 23.972 16.1477 23.972C15.8357 23.972 15.5557 24.056 15.3077 24.224C15.0597 24.384 14.8637 24.608 14.7197 24.896C14.5757 25.176 14.5037 25.5 14.5037 25.868ZM20.6111 26.648V22.712H22.2191V26.3C22.2191 27.268 22.5671 27.752 23.2631 27.752C23.5751 27.752 23.8751 27.66 24.1631 27.476C24.4591 27.284 24.6991 26.996 24.8831 26.612V22.712H26.4911V27.2C26.4911 27.376 26.5191 27.5 26.5751 27.572C26.6311 27.636 26.7311 27.676 26.8751 27.692V29C26.7151 29.032 26.5791 29.052 26.4671 29.06C26.3631 29.068 26.2671 29.072 26.1791 29.072C25.8911 29.072 25.6551 29.008 25.4711 28.88C25.2951 28.744 25.1911 28.56 25.1591 28.328L25.1231 27.824C24.8431 28.256 24.4831 28.58 24.0431 28.796C23.6031 29.012 23.1191 29.12 22.5911 29.12C21.9431 29.12 21.4511 28.912 21.1151 28.496C20.7791 28.072 20.6111 27.456 20.6111 26.648ZM31.9836 28.676C31.7676 28.772 31.4996 28.868 31.1796 28.964C30.8676 29.06 30.5436 29.108 30.2076 29.108C29.9116 29.108 29.6396 29.056 29.3916 28.952C29.1436 28.848 28.9436 28.684 28.7916 28.46C28.6476 28.228 28.5756 27.928 28.5756 27.56V23.948H27.7476V22.712H28.5756V20.672H30.1836V22.712H31.5036V23.948H30.1836V27.02C30.1836 27.236 30.2396 27.392 30.3516 27.488C30.4716 27.584 30.6156 27.632 30.7836 27.632C30.9516 27.632 31.1156 27.604 31.2756 27.548C31.4356 27.492 31.5636 27.444 31.6596 27.404L31.9836 28.676ZM38.8151 29H37.2071V25.472C37.2071 24.984 37.1111 24.62 36.9191 24.38C36.7351 24.14 36.4791 24.02 36.1511 24.02C35.9511 24.02 35.7431 24.076 35.5271 24.188C35.3191 24.3 35.1271 24.456 34.9511 24.656C34.7831 24.848 34.6591 25.072 34.5791 25.328V29H32.9711V20.24H34.5791V23.876C34.8111 23.476 35.1271 23.164 35.5271 22.94C35.9271 22.716 36.3631 22.604 36.8351 22.604C37.3711 22.604 37.7831 22.724 38.0711 22.964C38.3591 23.204 38.5551 23.512 38.6591 23.888C38.7631 24.264 38.8151 24.66 38.8151 25.076V29ZM43.2792 29.12C42.5992 29.12 42.0112 28.972 41.5152 28.676C41.0272 28.38 40.6472 27.988 40.3752 27.5C40.1032 27.004 39.9672 26.468 39.9672 25.892C39.9672 25.3 40.0992 24.756 40.3632 24.26C40.6352 23.756 41.0192 23.356 41.5152 23.06C42.0112 22.756 42.6032 22.604 43.2912 22.604C43.9792 22.604 44.5672 22.756 45.0552 23.06C45.5432 23.356 45.9152 23.752 46.1712 24.248C46.4352 24.736 46.5672 25.264 46.5672 25.832C46.5672 26.04 46.5552 26.22 46.5312 26.372H41.6712C41.7112 26.86 41.8912 27.244 42.2112 27.524C42.5392 27.804 42.9152 27.944 43.3392 27.944C43.6592 27.944 43.9592 27.868 44.2392 27.716C44.5272 27.556 44.7232 27.348 44.8272 27.092L46.2072 27.476C45.9752 27.956 45.6032 28.352 45.0912 28.664C44.5792 28.968 43.9752 29.12 43.2792 29.12ZM41.6352 25.352H44.9232C44.8752 24.88 44.6952 24.5 44.3832 24.212C44.0792 23.916 43.7072 23.768 43.2672 23.768C42.8352 23.768 42.4632 23.916 42.1512 24.212C41.8472 24.5 41.6752 24.88 41.6352 25.352ZM51.4408 24.104C50.9528 24.104 50.5168 24.2 50.1328 24.392C49.7488 24.576 49.4728 24.844 49.3048 25.196V29H47.6968V22.712H49.1728V24.056C49.3888 23.624 49.6688 23.284 50.0128 23.036C50.3648 22.788 50.7328 22.652 51.1168 22.628C51.2848 22.628 51.3928 22.632 51.4408 22.64V24.104ZM58.3315 29H56.7235V25.472C56.7235 24.968 56.6355 24.6 56.4595 24.368C56.2835 24.136 56.0395 24.02 55.7275 24.02C55.5115 24.02 55.2915 24.076 55.0675 24.188C54.8515 24.3 54.6555 24.456 54.4795 24.656C54.3035 24.848 54.1755 25.072 54.0955 25.328V29H52.4875V22.712H53.9395V23.876C54.1715 23.484 54.5075 23.176 54.9475 22.952C55.3875 22.72 55.8835 22.604 56.4355 22.604C56.8275 22.604 57.1475 22.676 57.3955 22.82C57.6435 22.956 57.8355 23.144 57.9715 23.384C58.1075 23.616 58.1995 23.88 58.2475 24.176C58.3035 24.472 58.3315 24.772 58.3315 25.076V29Z" fill="#B00020"/>
<path d="M19.3032 38.68C19.3032 38.16 19.3952 37.648 19.5792 37.144C19.7712 36.64 20.0472 36.184 20.4072 35.776C20.7672 35.368 21.2072 35.044 21.7272 34.804C22.2472 34.556 22.8392 34.432 23.5032 34.432C24.2792 34.432 24.9552 34.604 25.5312 34.948C26.1072 35.292 26.5352 35.74 26.8152 36.292L25.5432 37.168C25.3993 36.848 25.2113 36.596 24.9792 36.412C24.7472 36.228 24.4952 36.096 24.2232 36.016C23.9592 35.936 23.7032 35.896 23.4552 35.896C23.0392 35.896 22.6752 35.98 22.3632 36.148C22.0592 36.316 21.8032 36.536 21.5952 36.808C21.3872 37.08 21.2312 37.384 21.1272 37.72C21.0312 38.056 20.9832 38.392 20.9832 38.728C20.9832 39.232 21.0872 39.704 21.2952 40.144C21.5032 40.576 21.7952 40.928 22.1712 41.2C22.5472 41.472 22.9832 41.608 23.4792 41.608C23.7352 41.608 23.9992 41.564 24.2712 41.476C24.5512 41.388 24.8072 41.248 25.0392 41.056C25.2713 40.864 25.4513 40.616 25.5792 40.312L26.9353 41.092C26.7593 41.516 26.4833 41.876 26.1073 42.172C25.7312 42.46 25.3072 42.684 24.8352 42.844C24.3632 42.996 23.8952 43.072 23.4312 43.072C22.8232 43.072 22.2672 42.948 21.7632 42.7C21.2672 42.444 20.8352 42.108 20.4672 41.692C20.0992 41.268 19.8112 40.796 19.6032 40.276C19.4032 39.748 19.3032 39.216 19.3032 38.68ZM27.6078 41.14C27.6078 40.732 27.7198 40.376 27.9438 40.072C28.1758 39.76 28.4958 39.52 28.9038 39.352C29.3118 39.184 29.7798 39.1 30.3078 39.1C30.5718 39.1 30.8398 39.124 31.1118 39.172C31.3838 39.212 31.6198 39.272 31.8198 39.352V39.016C31.8198 38.616 31.6998 38.308 31.4598 38.092C31.2278 37.876 30.8798 37.768 30.4158 37.768C30.0718 37.768 29.7438 37.828 29.4318 37.948C29.1198 38.068 28.7918 38.244 28.4478 38.476L27.9318 37.42C28.3478 37.148 28.7718 36.944 29.2038 36.808C29.6438 36.672 30.1038 36.604 30.5838 36.604C31.4798 36.604 32.1758 36.828 32.6718 37.276C33.1758 37.724 33.4278 38.364 33.4278 39.196V41.2C33.4278 41.376 33.4558 41.5 33.5118 41.572C33.5678 41.636 33.6678 41.676 33.8118 41.692V43C33.6678 43.032 33.5358 43.052 33.4158 43.06C33.3038 43.076 33.2078 43.084 33.1278 43.084C32.8078 43.084 32.5638 43.012 32.3958 42.868C32.2278 42.724 32.1278 42.548 32.0958 42.34L32.0598 42.016C31.7798 42.376 31.4358 42.652 31.0278 42.844C30.6278 43.028 30.2158 43.12 29.7918 43.12C29.3678 43.12 28.9918 43.036 28.6638 42.868C28.3358 42.692 28.0758 42.456 27.8838 42.16C27.6998 41.856 27.6078 41.516 27.6078 41.14ZM31.5198 41.464C31.7198 41.272 31.8198 41.088 31.8198 40.912V40.276C31.4038 40.108 30.9838 40.024 30.5598 40.024C30.1358 40.024 29.7918 40.116 29.5278 40.3C29.2638 40.476 29.1318 40.712 29.1318 41.008C29.1318 41.248 29.2278 41.464 29.4198 41.656C29.6118 41.848 29.8878 41.944 30.2478 41.944C30.4878 41.944 30.7198 41.9 30.9438 41.812C31.1758 41.724 31.3678 41.608 31.5198 41.464ZM38.8244 38.104C38.3364 38.104 37.9004 38.2 37.5164 38.392C37.1324 38.576 36.8564 38.844 36.6884 39.196V43H35.0804V36.712H36.5564V38.056C36.7724 37.624 37.0524 37.284 37.3964 37.036C37.7484 36.788 38.1164 36.652 38.5004 36.628C38.6684 36.628 38.7764 36.632 38.8244 36.64V38.104ZM42.1871 43.12C41.6511 43.12 41.1391 43.032 40.6511 42.856C40.1631 42.68 39.7431 42.42 39.3911 42.076L39.9671 41.032C40.3431 41.336 40.7111 41.56 41.0711 41.704C41.4311 41.848 41.7831 41.92 42.1271 41.92C42.4391 41.92 42.6871 41.864 42.8711 41.752C43.0631 41.64 43.1591 41.472 43.1591 41.248C43.1591 41.016 43.0431 40.86 42.8111 40.78C42.5791 40.692 42.2551 40.584 41.8391 40.456C41.3751 40.312 40.9871 40.164 40.6751 40.012C40.3631 39.86 40.1271 39.676 39.9671 39.46C39.8151 39.244 39.7391 38.964 39.7391 38.62C39.7391 38.004 39.9711 37.512 40.4351 37.144C40.8991 36.776 41.5151 36.592 42.2831 36.592C42.7311 36.592 43.1551 36.664 43.5551 36.808C43.9551 36.944 44.3191 37.168 44.6471 37.48L43.9991 38.5C43.3831 38.02 42.7871 37.78 42.2111 37.78C41.9551 37.78 41.7271 37.828 41.5271 37.924C41.3351 38.02 41.2391 38.188 41.2391 38.428C41.2391 38.652 41.3311 38.812 41.5151 38.908C41.7071 39.004 41.9951 39.108 42.3791 39.22C42.8751 39.372 43.2951 39.52 43.6391 39.664C43.9911 39.808 44.2551 39.992 44.4311 40.216C44.6151 40.44 44.7071 40.744 44.7071 41.128C44.7071 41.752 44.4791 42.24 44.0231 42.592C43.5671 42.944 42.9551 43.12 42.1871 43.12Z" fill="black" fill-opacity="0.87"/>
</svg>
