<svg width="128" height="57" viewBox="0 0 128 57" fill="none" xmlns="http://www.w3.org/2000/svg">
<path d="M14.9784 6.28C14.7984 6.08 14.4184 5.82 13.8384 5.5C13.2584 5.16 12.5584 4.86 11.7384 4.6C10.9384 4.32 10.1084 4.18 9.24836 4.18C6.98836 4.18 5.85836 4.98 5.85836 6.58C5.85836 7.16 6.03836 7.62 6.39836 7.96C6.75836 8.3 7.29836 8.59 8.01836 8.83C8.73836 9.07 9.63836 9.33 10.7184 9.61C12.1184 9.97 13.3284 10.39 14.3484 10.87C15.3884 11.35 16.1784 11.99 16.7184 12.79C17.2784 13.57 17.5584 14.61 17.5584 15.91C17.5584 17.43 17.1884 18.66 16.4484 19.6C15.7284 20.52 14.7684 21.19 13.5684 21.61C12.3684 22.03 11.0684 22.24 9.66836 22.24C8.06836 22.24 6.47836 22 4.89836 21.52C3.33836 21.02 1.94836 20.34 0.728359 19.48L2.55836 15.91C2.73836 16.09 3.05836 16.33 3.51836 16.63C3.97836 16.91 4.53836 17.2 5.19836 17.5C5.85836 17.78 6.57836 18.02 7.35836 18.22C8.13836 18.42 8.92836 18.52 9.72836 18.52C12.0084 18.52 13.1484 17.79 13.1484 16.33C13.1484 15.71 12.9184 15.21 12.4584 14.83C11.9984 14.45 11.3484 14.13 10.5084 13.87C9.68836 13.61 8.72836 13.32 7.62836 13C6.26836 12.62 5.13836 12.2 4.23836 11.74C3.35836 11.26 2.69836 10.67 2.25836 9.97C1.81836 9.25 1.59836 8.34 1.59836 7.24C1.59836 5.78 1.93836 4.56 2.61836 3.58C3.31836 2.58 4.25836 1.83 5.43836 1.33C6.61836 0.809999 7.92836 0.549999 9.36836 0.549999C10.8484 0.549999 12.2284 0.789999 13.5084 1.27C14.7884 1.75 15.8884 2.3 16.8084 2.92L14.9784 6.28ZM27.0568 22.3C25.3368 22.3 23.8568 21.93 22.6168 21.19C21.3968 20.43 20.4568 19.43 19.7968 18.19C19.1368 16.95 18.8068 15.61 18.8068 14.17C18.8068 12.71 19.1368 11.36 19.7968 10.12C20.4768 8.88 21.4268 7.89 22.6468 7.15C23.8868 6.39 25.3568 6.01 27.0568 6.01C28.7568 6.01 30.2168 6.39 31.4368 7.15C32.6768 7.89 33.6268 8.88 34.2868 10.12C34.9468 11.36 35.2768 12.71 35.2768 14.17C35.2768 15.61 34.9468 16.95 34.2868 18.19C33.6268 19.43 32.6768 20.43 31.4368 21.19C30.2168 21.93 28.7568 22.3 27.0568 22.3ZM22.9468 14.17C22.9468 15.09 23.1268 15.91 23.4868 16.63C23.8468 17.33 24.3368 17.88 24.9568 18.28C25.5768 18.68 26.2768 18.88 27.0568 18.88C27.8168 18.88 28.5068 18.68 29.1268 18.28C29.7468 17.86 30.2368 17.3 30.5968 16.6C30.9768 15.88 31.1668 15.06 31.1668 14.14C31.1668 13.24 30.9768 12.44 30.5968 11.74C30.2368 11.02 29.7468 10.46 29.1268 10.06C28.5068 9.64 27.8168 9.43 27.0568 9.43C26.2768 9.43 25.5768 9.64 24.9568 10.06C24.3368 10.46 23.8468 11.02 23.4868 11.74C23.1268 12.44 22.9468 13.25 22.9468 14.17ZM37.3402 16.12V6.28H41.3602V15.25C41.3602 17.67 42.2302 18.88 43.9702 18.88C44.7502 18.88 45.5002 18.65 46.2202 18.19C46.9602 17.71 47.5602 16.99 48.0202 16.03V6.28H52.0402V17.5C52.0402 17.94 52.1102 18.25 52.2502 18.43C52.3902 18.59 52.6402 18.69 53.0002 18.73V22C52.6002 22.08 52.2602 22.13 51.9802 22.15C51.7202 22.17 51.4802 22.18 51.2602 22.18C50.5402 22.18 49.9502 22.02 49.4902 21.7C49.0502 21.36 48.7902 20.9 48.7102 20.32L48.6202 19.06C47.9202 20.14 47.0202 20.95 45.9202 21.49C44.8202 22.03 43.6102 22.3 42.2902 22.3C40.6702 22.3 39.4402 21.78 38.6002 20.74C37.7602 19.68 37.3402 18.14 37.3402 16.12ZM64.8965 21.19C64.3565 21.43 63.6865 21.67 62.8865 21.91C62.1065 22.15 61.2965 22.27 60.4565 22.27C59.7165 22.27 59.0365 22.14 58.4165 21.88C57.7965 21.62 57.2965 21.21 56.9165 20.65C56.5565 20.07 56.3765 19.32 56.3765 18.4V9.37H54.3065V6.28H56.3765V1.18H60.3965V6.28H63.6965V9.37H60.3965V17.05C60.3965 17.59 60.5365 17.98 60.8165 18.22C61.1165 18.46 61.4765 18.58 61.8965 18.58C62.3165 18.58 62.7265 18.51 63.1265 18.37C63.5265 18.23 63.8465 18.11 64.0865 18.01L64.8965 21.19ZM81.1002 22H77.0802V13.18C77.0802 11.96 76.8402 11.05 76.3602 10.45C75.9002 9.85 75.2602 9.55 74.4402 9.55C73.9402 9.55 73.4202 9.69 72.8802 9.97C72.3602 10.25 71.8802 10.64 71.4402 11.14C71.0202 11.62 70.7102 12.18 70.5102 12.82V22H66.4902V0.0999994H70.5102V9.19C71.0902 8.19 71.8802 7.41 72.8802 6.85C73.8802 6.29 74.9702 6.01 76.1502 6.01C77.4902 6.01 78.5202 6.31 79.2402 6.91C79.9602 7.51 80.4502 8.28 80.7102 9.22C80.9702 10.16 81.1002 11.15 81.1002 12.19V22ZM91.3856 22.3C89.6856 22.3 88.2156 21.93 86.9756 21.19C85.7556 20.45 84.8056 19.47 84.1256 18.25C83.4456 17.01 83.1056 15.67 83.1056 14.23C83.1056 12.75 83.4356 11.39 84.0956 10.15C84.7756 8.89 85.7356 7.89 86.9756 7.15C88.2156 6.39 89.6956 6.01 91.4156 6.01C93.1356 6.01 94.6056 6.39 95.8256 7.15C97.0456 7.89 97.9756 8.88 98.6156 10.12C99.2756 11.34 99.6056 12.66 99.6056 14.08C99.6056 14.6 99.5756 15.05 99.5156 15.43H87.3656C87.4656 16.65 87.9156 17.61 88.7156 18.31C89.5356 19.01 90.4756 19.36 91.5356 19.36C92.3356 19.36 93.0856 19.17 93.7856 18.79C94.5056 18.39 94.9956 17.87 95.2556 17.23L98.7056 18.19C98.1256 19.39 97.1956 20.38 95.9156 21.16C94.6356 21.92 93.1256 22.3 91.3856 22.3ZM87.2756 12.88H95.4956C95.3756 11.7 94.9256 10.75 94.1456 10.03C93.3856 9.29 92.4556 8.92 91.3556 8.92C90.2756 8.92 89.3456 9.29 88.5656 10.03C87.8056 10.75 87.3756 11.7 87.2756 12.88ZM110.915 9.76C109.695 9.76 108.605 10 107.645 10.48C106.685 10.94 105.995 11.61 105.575 12.49V22H101.555V6.28H105.245V9.64C105.785 8.56 106.485 7.71 107.345 7.09C108.225 6.47 109.145 6.13 110.105 6.07C110.525 6.07 110.795 6.08 110.915 6.1V9.76ZM127.266 22H123.246V13.18C123.246 11.92 123.026 11 122.586 10.42C122.146 9.84 121.536 9.55 120.756 9.55C120.216 9.55 119.666 9.69 119.106 9.97C118.566 10.25 118.076 10.64 117.636 11.14C117.196 11.62 116.876 12.18 116.676 12.82V22H112.656V6.28H116.286V9.19C116.866 8.21 117.706 7.44 118.806 6.88C119.906 6.3 121.146 6.01 122.526 6.01C123.506 6.01 124.306 6.19 124.926 6.55C125.546 6.89 126.026 7.36 126.366 7.96C126.706 8.54 126.936 9.2 127.056 9.94C127.196 10.68 127.266 11.43 127.266 12.19V22Z" fill="#960301"/>
<path d="M34.0706 45.2C34.0706 43.9 34.3006 42.62 34.7606 41.36C35.2406 40.1 35.9306 38.96 36.8306 37.94C37.7306 36.92 38.8306 36.11 40.1306 35.51C41.4306 34.89 42.9106 34.58 44.5706 34.58C46.5106 34.58 48.2006 35.01 49.6406 35.87C51.0806 36.73 52.1506 37.85 52.8506 39.23L49.6706 41.42C49.3106 40.62 48.8406 39.99 48.2606 39.53C47.6806 39.07 47.0506 38.74 46.3706 38.54C45.7106 38.34 45.0706 38.24 44.4506 38.24C43.4106 38.24 42.5006 38.45 41.7206 38.87C40.9606 39.29 40.3206 39.84 39.8006 40.52C39.2806 41.2 38.8906 41.96 38.6306 42.8C38.3906 43.64 38.2706 44.48 38.2706 45.32C38.2706 46.58 38.5306 47.76 39.0506 48.86C39.5706 49.94 40.3006 50.82 41.2406 51.5C42.1806 52.18 43.2706 52.52 44.5106 52.52C45.1506 52.52 45.8106 52.41 46.4906 52.19C47.1906 51.97 47.8306 51.62 48.4106 51.14C48.9906 50.66 49.4406 50.04 49.7606 49.28L53.1506 51.23C52.7106 52.29 52.0206 53.19 51.0806 53.93C50.1406 54.65 49.0806 55.21 47.9006 55.61C46.7206 55.99 45.5506 56.18 44.3906 56.18C42.8706 56.18 41.4806 55.87 40.2206 55.25C38.9806 54.61 37.9006 53.77 36.9806 52.73C36.0606 51.67 35.3406 50.49 34.8206 49.19C34.3206 47.87 34.0706 46.54 34.0706 45.2ZM53.957 51.35C53.957 50.33 54.237 49.44 54.797 48.68C55.377 47.9 56.177 47.3 57.197 46.88C58.217 46.46 59.387 46.25 60.707 46.25C61.367 46.25 62.037 46.31 62.717 46.43C63.397 46.53 63.987 46.68 64.487 46.88V46.04C64.487 45.04 64.187 44.27 63.587 43.73C63.007 43.19 62.137 42.92 60.977 42.92C60.117 42.92 59.297 43.07 58.517 43.37C57.737 43.67 56.917 44.11 56.057 44.69L54.767 42.05C55.807 41.37 56.867 40.86 57.947 40.52C59.047 40.18 60.197 40.01 61.397 40.01C63.637 40.01 65.377 40.57 66.617 41.69C67.877 42.81 68.507 44.41 68.507 46.49V51.5C68.507 51.94 68.577 52.25 68.717 52.43C68.857 52.59 69.107 52.69 69.467 52.73V56C69.107 56.08 68.777 56.13 68.477 56.15C68.197 56.19 67.957 56.21 67.757 56.21C66.957 56.21 66.347 56.03 65.927 55.67C65.507 55.31 65.257 54.87 65.177 54.35L65.087 53.54C64.387 54.44 63.527 55.13 62.507 55.61C61.507 56.07 60.477 56.3 59.417 56.3C58.357 56.3 57.417 56.09 56.597 55.67C55.777 55.23 55.127 54.64 54.647 53.9C54.187 53.14 53.957 52.29 53.957 51.35ZM63.737 52.16C64.237 51.68 64.487 51.22 64.487 50.78V49.19C63.447 48.77 62.397 48.56 61.337 48.56C60.277 48.56 59.417 48.79 58.757 49.25C58.097 49.69 57.767 50.28 57.767 51.02C57.767 51.62 58.007 52.16 58.487 52.64C58.967 53.12 59.657 53.36 60.557 53.36C61.157 53.36 61.737 53.25 62.297 53.03C62.877 52.81 63.357 52.52 63.737 52.16ZM81.1236 43.76C79.9036 43.76 78.8136 44 77.8536 44.48C76.8936 44.94 76.2036 45.61 75.7836 46.49V56H71.7636V40.28H75.4536V43.64C75.9936 42.56 76.6936 41.71 77.5536 41.09C78.4336 40.47 79.3536 40.13 80.3136 40.07C80.7336 40.07 81.0036 40.08 81.1236 40.1V43.76ZM88.6552 56.3C87.3152 56.3 86.0352 56.08 84.8152 55.64C83.5952 55.2 82.5452 54.55 81.6652 53.69L83.1052 51.08C84.0452 51.84 84.9652 52.4 85.8652 52.76C86.7652 53.12 87.6452 53.3 88.5052 53.3C89.2852 53.3 89.9052 53.16 90.3652 52.88C90.8452 52.6 91.0852 52.18 91.0852 51.62C91.0852 51.04 90.7952 50.65 90.2152 50.45C89.6352 50.23 88.8252 49.96 87.7852 49.64C86.6252 49.28 85.6552 48.91 84.8752 48.53C84.0952 48.15 83.5052 47.69 83.1052 47.15C82.7252 46.61 82.5352 45.91 82.5352 45.05C82.5352 43.51 83.1152 42.28 84.2752 41.36C85.4352 40.44 86.9752 39.98 88.8952 39.98C90.0152 39.98 91.0752 40.16 92.0752 40.52C93.0752 40.86 93.9852 41.42 94.8052 42.2L93.1852 44.75C91.6452 43.55 90.1552 42.95 88.7152 42.95C88.0752 42.95 87.5052 43.07 87.0052 43.31C86.5252 43.55 86.2852 43.97 86.2852 44.57C86.2852 45.13 86.5152 45.53 86.9752 45.77C87.4552 46.01 88.1752 46.27 89.1352 46.55C90.3752 46.93 91.4252 47.3 92.2852 47.66C93.1652 48.02 93.8252 48.48 94.2652 49.04C94.7252 49.6 94.9552 50.36 94.9552 51.32C94.9552 52.88 94.3852 54.1 93.2452 54.98C92.1052 55.86 90.5752 56.3 88.6552 56.3Z" fill="#0D0303"/>
</svg>
