<svg width="43" height="21" viewBox="0 0 43 21" fill="none" xmlns="http://www.w3.org/2000/svg">
<path d="M10.0781 11.8203C9.21438 11.8203 8.37003 12.0764 7.65185 12.5563C6.93367 13.0362 6.37391 13.7183 6.04337 14.5163C5.71283 15.3143 5.62634 16.1924 5.79485 17.0395C5.96336 17.8867 6.3793 18.6648 6.99006 19.2756C7.60082 19.8863 8.37898 20.3023 9.22613 20.4708C10.0733 20.6393 10.9514 20.5528 11.7494 20.2223C12.5474 19.8917 13.2294 19.332 13.7093 18.6138C14.1892 17.8956 14.4453 17.0513 14.4453 16.1875C14.444 15.0297 13.9835 13.9196 13.1647 13.1009C12.346 12.2822 11.236 11.8216 10.0781 11.8203ZM10.0781 18.2031C9.67947 18.2031 9.28977 18.0849 8.9583 17.8634C8.62684 17.642 8.36849 17.3272 8.21593 16.9589C8.06337 16.5905 8.02346 16.1853 8.10123 15.7943C8.179 15.4033 8.37097 15.0441 8.65286 14.7622C8.93475 14.4804 9.2939 14.2884 9.68489 14.2106C10.0759 14.1328 10.4812 14.1728 10.8495 14.3253C11.2178 14.4779 11.5326 14.7362 11.7541 15.0677C11.9755 15.3992 12.0937 15.7889 12.0937 16.1875C12.0937 16.7221 11.8814 17.2348 11.5034 17.6128C11.1254 17.9908 10.6127 18.2031 10.0781 18.2031Z" fill="#0D0303"/>
<path d="M34.2656 11.8203C33.4019 11.8203 32.5575 12.0764 31.8393 12.5563C31.1212 13.0362 30.5614 13.7183 30.2309 14.5163C29.9003 15.3143 29.8138 16.1924 29.9824 17.0395C30.1509 17.8867 30.5668 18.6648 31.1776 19.2756C31.7883 19.8863 32.5665 20.3023 33.4136 20.4708C34.2608 20.6393 35.1389 20.5528 35.9369 20.2223C36.7349 19.8917 37.4169 19.332 37.8968 18.6138C38.3767 17.8956 38.6328 17.0513 38.6328 16.1875C38.6315 15.0297 38.171 13.9196 37.3522 13.1009C36.5335 12.2822 35.4235 11.8216 34.2656 11.8203ZM34.2656 18.2031C33.867 18.2031 33.4773 18.0849 33.1458 17.8634C32.8143 17.642 32.556 17.3272 32.4034 16.9589C32.2509 16.5905 32.211 16.1853 32.2887 15.7943C32.3665 15.4033 32.5585 15.0441 32.8404 14.7622C33.1223 14.4804 33.4814 14.2884 33.8724 14.2106C34.2634 14.1328 34.6687 14.1728 35.037 14.3253C35.4053 14.4779 35.7201 14.7362 35.9415 15.0677C36.163 15.3992 36.2812 15.7889 36.2812 16.1875C36.2812 16.7221 36.0689 17.2348 35.6909 17.6128C35.3129 17.9908 34.8002 18.2031 34.2656 18.2031Z" fill="#0D0303"/>
<path d="M40.0941 8.21235L32.25 6.78126L25.572 1.24039C24.9101 0.69673 24.0804 0.399204 23.2239 0.398448H13.3854C12.831 0.397135 12.2835 0.521206 11.7838 0.761379C11.2841 1.00155 10.8451 1.35161 10.4998 1.78537L6.23433 6.78126H3.35938C2.55778 6.78215 1.78928 7.10098 1.22246 7.66779C0.655652 8.2346 0.336827 9.00311 0.335938 9.8047V13.5C0.337027 14.4797 0.726703 15.419 1.41947 16.1118C2.11224 16.8046 3.05153 17.1942 4.03125 17.1953H4.79929C4.65021 16.4179 4.67472 15.617 4.87104 14.8501C5.06737 14.0832 5.43068 13.3692 5.93499 12.759C6.43931 12.1488 7.0722 11.6575 7.78841 11.3202C8.50462 10.983 9.28649 10.8082 10.0781 10.8082C10.8698 10.8082 11.6516 10.983 12.3678 11.3202C13.0841 11.6575 13.7169 12.1488 14.2213 12.759C14.7256 13.3692 15.0889 14.0832 15.2852 14.8501C15.4815 15.617 15.506 16.4179 15.357 17.1953H28.9868C28.8377 16.4179 28.8622 15.617 29.0585 14.8501C29.2549 14.0832 29.6182 13.3692 30.1225 12.759C30.6268 12.1488 31.2597 11.6575 31.9759 11.3202C32.6921 10.983 33.474 10.8082 34.2656 10.8082C35.0573 10.8082 35.8391 10.983 36.5553 11.3202C37.2716 11.6575 37.9044 12.1488 38.4088 12.759C38.9131 13.3692 39.2764 14.0832 39.4727 14.8501C39.669 15.617 39.6935 16.4179 39.5445 17.1953H39.6406C40.4422 17.1944 41.2107 16.8756 41.7775 16.3088C42.3443 15.742 42.6632 14.9735 42.6641 14.1719V11.2015C42.6677 10.4773 42.4097 9.77604 41.9375 9.22684C41.4653 8.67764 40.8108 8.31739 40.0941 8.21235ZM15.1172 5.77345C15.1172 6.04074 15.011 6.29708 14.822 6.48608C14.633 6.67508 14.3767 6.78126 14.1094 6.78126H9.67878C9.58243 6.78132 9.48808 6.75375 9.40692 6.70182C9.32576 6.64989 9.26119 6.57579 9.22086 6.48828C9.18053 6.40078 9.16613 6.30355 9.17937 6.20811C9.19261 6.11268 9.23293 6.02304 9.29556 5.94982L12.228 2.51485C12.3226 2.40417 12.4402 2.31532 12.5725 2.25442C12.7048 2.19353 12.8487 2.16204 12.9944 2.16212H14.1094C14.3767 2.16212 14.633 2.2683 14.822 2.4573C15.011 2.6463 15.1172 2.90264 15.1172 3.16993V5.77345ZM20.1562 10.4766H18.8125C18.5452 10.4766 18.2889 10.3704 18.0999 10.1814C17.9109 9.99239 17.8047 9.73605 17.8047 9.46876C17.8047 9.20147 17.9109 8.94513 18.0999 8.75613C18.2889 8.56713 18.5452 8.46095 18.8125 8.46095H20.1562C20.4235 8.46095 20.6799 8.56713 20.8689 8.75613C21.0579 8.94513 21.1641 9.20147 21.1641 9.46876C21.1641 9.73605 21.0579 9.99239 20.8689 10.1814C20.6799 10.3704 20.4235 10.4766 20.1562 10.4766ZM28.091 6.80595L18.4742 6.78361C18.2073 6.78299 17.9516 6.67654 17.7631 6.4876C17.5746 6.29867 17.4688 6.04268 17.4688 5.7758V3.16993C17.4688 2.90264 17.5749 2.6463 17.7639 2.4573C17.9529 2.2683 18.2093 2.16212 18.4766 2.16212H23.3097C23.5362 2.16214 23.7561 2.23847 23.934 2.3788L28.4043 5.90614C28.4867 5.97103 28.5468 6.06 28.5762 6.16067C28.6056 6.26134 28.6029 6.36868 28.5684 6.46773C28.5339 6.56677 28.4694 6.6526 28.3838 6.71322C28.2983 6.77385 28.1959 6.80627 28.091 6.80595Z" fill="#0D0303"/>
</svg>
