<svg width="20" height="20" viewBox="0 0 20 20" fill="none" xmlns="http://www.w3.org/2000/svg">
<path d="M16.5625 2.5H13.125V1.875C13.125 0.839453 12.2855 0 11.25 0H8.75C7.71445 0 6.875 0.839453 6.875 1.875V2.5H3.4375C2.57457 2.5 1.875 3.19957 1.875 4.0625V5.3125C1.875 5.6577 2.1548 5.9375 2.5 5.9375H17.5C17.8452 5.9375 18.125 5.6577 18.125 5.3125V4.0625C18.125 3.19957 17.4254 2.5 16.5625 2.5ZM8.125 1.875C8.125 1.53047 8.40547 1.25 8.75 1.25H11.25C11.5945 1.25 11.875 1.53047 11.875 1.875V2.5H8.125V1.875Z" fill="#960301"/>
<path d="M3.06109 7.1875C2.94956 7.1875 2.8607 7.2807 2.86601 7.39211L3.38164 18.2141C3.42929 19.2156 4.25195 20 5.25429 20H14.7457C15.748 20 16.5707 19.2156 16.6184 18.2141L17.134 7.39211C17.1393 7.2807 17.0504 7.1875 16.9389 7.1875H3.06109ZM12.5 8.75C12.5 8.40469 12.7797 8.125 13.125 8.125C13.4703 8.125 13.75 8.40469 13.75 8.75V16.875C13.75 17.2203 13.4703 17.5 13.125 17.5C12.7797 17.5 12.5 17.2203 12.5 16.875V8.75ZM9.375 8.75C9.375 8.40469 9.65468 8.125 10 8.125C10.3453 8.125 10.625 8.40469 10.625 8.75V16.875C10.625 17.2203 10.3453 17.5 10 17.5C9.65468 17.5 9.375 17.2203 9.375 16.875V8.75ZM6.25 8.75C6.25 8.40469 6.52968 8.125 6.875 8.125C7.22031 8.125 7.5 8.40469 7.5 8.75V16.875C7.5 17.2203 7.22031 17.5 6.875 17.5C6.52968 17.5 6.25 17.2203 6.25 16.875V8.75Z" fill="#960301"/>
</svg>
